<svg xmlns="http://www.w3.org/2000/svg" width="42.568" height="42.111" viewBox="0 0 42.568 42.111">
    <defs>
    </defs>
    <path id="icons8-instagram" d="M14.824 3A11.763 11.763 0 0 0 3 14.7v18.713a11.763 11.763 0 0 0 11.824 11.7h18.92a11.763 11.763 0 0 0 11.824-11.7V14.7A11.763 11.763 0 0 0 33.744 3zm23.649 4.679a2.34 2.34 0 1 1-2.365 2.339 2.353 2.353 0 0 1 2.365-2.339zm-14.189 4.679a11.7 11.7 0 1 1-11.824 11.7 11.763 11.763 0 0 1 11.824-11.7zm0 4.679a7.019 7.019 0 1 0 7.095 7.018 7.057 7.057 0 0 0-7.095-7.018z" transform="translate(-3 -3)"/>
</svg>
