<svg version="1" xmlns="http://www.w3.org/2000/svg" width="1030.667" height="1030.667" viewBox="0 0 773.000000 773.000000"><path d="M76.9 2.4c-.2.2-2.9.7-5.9 1.1C61 4.6 47.7 10 37.3 17.1c-11.7 8-23.6 23.1-29.2 37.1-6.4 15.9-5.9-8.7-6 331.3 0 180.6.4 312.1.9 315 1.8 9.6 2.1 11 5 18.2 10.4 26 35.6 46.7 61.9 51 2.5.5 145.4.8 317.6.8h313l8.4-2.2c31.4-8.4 55.9-35.1 61-66.8.6-3.8.9-118.8.8-318.5l-.2-312.5-2.2-7.2c-9.9-31.6-32.8-52.8-64.8-59.9-4.9-1-63.6-1.3-316.1-1.3-170.5-.1-310.2.1-310.5.3z"/></svg>