<svg xmlns="http://www.w3.org/2000/svg" width="41.286" height="41.286" viewBox="0 0 41.286 41.286">
  <path id="Path_5" data-name="Path 5" d="M26.857-16.786a6.469,6.469,0,0,1-1.967,4.747,6.469,6.469,0,0,1-4.747,1.967A6.469,6.469,0,0,1,15.4-12.039a6.469,6.469,0,0,1-1.967-4.747A6.469,6.469,0,0,1,15.4-21.533,6.469,6.469,0,0,1,20.143-23.5a6.469,6.469,0,0,1,4.747,1.967A6.469,6.469,0,0,1,26.857-16.786Zm3.357,0a9.7,9.7,0,0,0-2.951-7.121,9.7,9.7,0,0,0-7.121-2.951,9.7,9.7,0,0,0-7.121,2.951,9.7,9.7,0,0,0-2.951,7.121,9.7,9.7,0,0,0,2.951,7.121,9.7,9.7,0,0,0,7.121,2.951,9.7,9.7,0,0,0,7.121-2.951A9.7,9.7,0,0,0,30.214-16.786Zm3.357,0a12.938,12.938,0,0,1-3.934,9.494,12.938,12.938,0,0,1-9.494,3.934,12.938,12.938,0,0,1-9.494-3.934,12.938,12.938,0,0,1-3.934-9.494,12.938,12.938,0,0,1,3.934-9.494,12.938,12.938,0,0,1,9.494-3.934,12.938,12.938,0,0,1,9.494,3.934A12.938,12.938,0,0,1,33.571-16.786Zm3.357,0A16.316,16.316,0,0,0,35.591-23.3a16.951,16.951,0,0,0-3.58-5.35,16.951,16.951,0,0,0-5.35-3.58,16.316,16.316,0,0,0-6.518-1.338,16.316,16.316,0,0,0-6.518,1.338,16.951,16.951,0,0,0-5.35,3.58,16.951,16.951,0,0,0-3.58,5.35,16.316,16.316,0,0,0-1.338,6.518,16.316,16.316,0,0,0,1.338,6.518,16.951,16.951,0,0,0,3.58,5.35,16.951,16.951,0,0,0,5.35,3.58A16.316,16.316,0,0,0,20.143,0,16.316,16.316,0,0,0,26.66-1.338a16.951,16.951,0,0,0,5.35-3.58,16.951,16.951,0,0,0,3.58-5.35A16.316,16.316,0,0,0,36.929-16.786Zm3.357,0a19.7,19.7,0,0,1-2.7,10.111A20.052,20.052,0,0,1,30.254.656a19.7,19.7,0,0,1-10.111,2.7A19.7,19.7,0,0,1,10.032.656,20.052,20.052,0,0,1,2.7-6.675,19.7,19.7,0,0,1,0-16.786,19.7,19.7,0,0,1,2.7-26.9a20.052,20.052,0,0,1,7.331-7.331,19.7,19.7,0,0,1,10.111-2.7,19.7,19.7,0,0,1,10.111,2.7A20.052,20.052,0,0,1,37.584-26.9,19.7,19.7,0,0,1,40.286-16.786Z" transform="translate(0.5 37.429)" fill="#750097" stroke="rgba(0,0,0,0)" stroke-width="1"/>
</svg>
