<svg xmlns="http://www.w3.org/2000/svg" width="24.516" height="44.643" viewBox="0 0 24.516 44.643">
  <path id="Path_4" data-name="Path 4" d="M23.211-25.441a.985.985,0,0,1,.184,1.154L9.232,6.059a1.153,1.153,0,0,1-1.1.656,2.21,2.21,0,0,1-.367-.052,1.118,1.118,0,0,1-.669-.5,1,1,0,0,1-.118-.787l5.167-21.192L1.495-13.166a1.4,1.4,0,0,1-.315.026,1.218,1.218,0,0,1-.813-.289.979.979,0,0,1-.341-1.023L5.3-36.089a1.123,1.123,0,0,1,.42-.6,1.19,1.19,0,0,1,.734-.236h8.6a1.165,1.165,0,0,1,.839.328,1.039,1.039,0,0,1,.341.774,1.075,1.075,0,0,1-.131.472L11.619-23.211l10.386-2.57a1.435,1.435,0,0,1,.315-.052A1.23,1.23,0,0,1,23.211-25.441Z" transform="translate(0.505 37.429)" fill="#750097" stroke="rgba(0,0,0,0)" stroke-width="1"/>
</svg>
